<svg xmlns="http://www.w3.org/2000/svg" viewBox="0 0 236 48" width="236" height="48" role="img" aria-label="Cognito Notes">
  <defs>
    <linearGradient id="brand" x1="0" y1="0" x2="32" y2="32" gradientUnits="userSpaceOnUse">
      <stop offset="0" stop-color="#4F46E5"/>
      <stop offset="1" stop-color="#8B5CF6"/>
    </linearGradient>
    <linearGradient id="brandText" x1="146" y1="10" x2="232" y2="38" gradientUnits="userSpaceOnUse">
      <stop offset="0" stop-color="#4F46E5"/>
      <stop offset="1" stop-color="#8B5CF6"/>
    </linearGradient>
  </defs>
  <g transform="translate(0 4) scale(1.25)">
    <rect width="32" height="32" rx="7" fill="url(#brand)"/>
    <path d="M13 7.5 H21 L25.5 12 V23.5 Q25.5 25.5 23.5 25.5 H13.5 A3.6 3.6 0 0 1 8 22.5 A3.5 3.5 0 0 1 6.5 16.5 A3.5 3.5 0 0 1 8 10.5 A3.3 3.3 0 0 1 13 7.5 Z" fill="#fff"/>
    <path d="M21 7.5 V12 H25.5 Z" fill="#C4B5FD"/>
    <path d="M15.5 16 H21.5 M15.5 19.5 H19.5" fill="none" stroke="url(#brand)" stroke-width="1.8" stroke-linecap="round"/>
    <path d="M11.5 11.5 C9.8 12.6 9.4 14.6 10.4 16.2 M10.6 18.2 C10.9 19.9 12.2 21 13.9 21" fill="none" stroke="url(#brand)" stroke-width="1.5" stroke-linecap="round"/>
  </g>
  <text x="52" y="32.5" font-family="Inter, 'Segoe UI', system-ui, sans-serif" font-size="24" font-weight="700" letter-spacing="-0.5" fill="#1E1B4B">Cognito<tspan fill="url(#brandText)"> Notes</tspan></text>
</svg>
